<?xml version="1.0" encoding="UTF-8"?>
<svg version="1.1" xmlns="http://www.w3.org/2000/svg" width="500" height="500">
<path d="M0 0 C4.99398837 4.16165698 7.00535934 8.9856064 9.4375 14.875 C9.7878833 15.71353516 10.1382666 16.55207031 10.49926758 17.41601562 C13.0435788 23.58221506 15.36311379 29.80646303 17.45825195 36.1394043 C18.74200598 39.95386318 20.23740342 43.58650724 21.93798828 47.23583984 C24.54331811 52.92970976 26.87263776 58.702545 29.13671875 64.5390625 C29.54984818 65.59620453 29.9629776 66.65334656 30.3886261 67.74252319 C31.69944378 71.09807457 33.00620408 74.45518607 34.3125 77.8125 C36.02325076 82.20110272 37.73601409 86.58891725 39.44921875 90.9765625 C39.86992645 92.05593079 40.29063416 93.13529907 40.72409058 94.24737549 C42.95356823 99.95634637 45.20781496 105.65416878 47.49853516 111.33886719 C48.1949688 113.06790787 48.1949688 113.06790787 48.9054718 114.83187866 C49.79844478 117.04395837 50.69447659 119.25480634 51.59391785 121.46426392 C51.99194107 122.44978241 52.38996429 123.4353009 52.80004883 124.45068359 C53.1533577 125.31970306 53.50666656 126.18872253 53.87068176 127.08407593 C54.625 129.1875 54.625 129.1875 54.625 131.1875 C56.37876953 130.9709375 56.37876953 130.9709375 58.16796875 130.75 C59.71612699 130.56234446 61.26430513 130.3748531 62.8125 130.1875 C63.96588867 130.04441406 63.96588867 130.04441406 65.14257812 129.8984375 C68.99428811 129.43557106 72.73670851 129.06282532 76.625 129.1875 C75.24544636 133.82929225 73.16915663 135.68463395 69.25 138.4375 C68.29351562 139.12328125 67.33703125 139.8090625 66.3515625 140.515625 C63.93416322 141.99792714 62.32965899 142.60282592 59.625 143.1875 C59.97804199 144.0345752 60.33108398 144.88165039 60.69482422 145.75439453 C62.01226641 148.91824864 63.32780515 152.08288052 64.64208984 155.24804688 C65.20969606 156.61392 65.77804402 157.97948514 66.34716797 159.34472656 C67.16832812 161.31493567 67.98675344 163.28626226 68.8046875 165.2578125 C69.29694824 166.44133301 69.78920898 167.62485352 70.29638672 168.84423828 C72.78248473 175.10014165 74.61935238 180.43317954 73.625 187.1875 C71.46185247 191.28202926 68.43915889 196.2756159 63.8046875 197.77734375 C58.4901518 198.77739079 53.36050857 198.79814191 48.25 197 C43.59484855 193.78572876 41.22350734 189.81552286 39.1875 184.6171875 C38.76726562 183.555 38.34703125 182.4928125 37.9140625 181.3984375 C37.48867188 180.29757812 37.06328125 179.19671875 36.625 178.0625 C36.19960938 176.98484375 35.77421875 175.9071875 35.3359375 174.796875 C34.08049491 171.60050275 32.84718412 168.39672534 31.625 165.1875 C31.02945313 163.62757324 31.02945313 163.62757324 30.421875 162.03613281 C30.05578125 161.05741211 29.6896875 160.07869141 29.3125 159.0703125 C28.98636719 158.20035645 28.66023438 157.33040039 28.32421875 156.43408203 C27.625 154.1875 27.625 154.1875 27.625 151.1875 C26.18833984 151.29191406 26.18833984 151.29191406 24.72265625 151.3984375 C9.12841214 152.17250751 -3.76356337 147.30897932 -16.375 138.1875 C-25.58423841 130.74333729 -25.58423841 130.74333729 -36.375 127.1875 C-37.87668632 131.05186057 -39.37681786 134.91682081 -40.87573242 138.78225708 C-41.41642308 140.17616166 -41.95743815 141.56994045 -42.4987793 142.96359253 C-45.53814289 150.78981797 -48.5521785 158.62364765 -51.48046875 166.4921875 C-51.97285849 167.81031839 -52.46528938 169.1284339 -52.95776367 170.4465332 C-53.8868726 172.93437454 -54.8058493 175.42523551 -55.7199707 177.91870117 C-57.79739427 183.48372387 -59.74960576 188.46182235 -63.375 193.1875 C-63.91125 193.93 -64.4475 194.6725 -65 195.4375 C-68.77827755 198.22149399 -72.72722461 198.96384765 -77.375 199.1875 C-83.0215031 198.24804714 -86.72527785 195.58863553 -90.375 191.1875 C-93.0889474 186.50601604 -93.16952538 182.48571672 -92.375 177.1875 C-90.57136165 171.47835143 -88.26901683 166.01012838 -85.9375 160.5 C-85.2948599 158.94567016 -84.65408446 157.39056812 -84.01513672 155.8347168 C-82.74185254 152.73725937 -81.46127198 149.64298789 -80.17529297 146.55078125 C-77.69583229 140.5679451 -75.34089134 134.53831922 -73 128.5 C-72.28392366 126.66273333 -71.56778611 124.82549052 -70.8515625 122.98828125 C-70.35915454 121.72143984 -69.86686934 120.45455064 -69.375 119.1875 C-72.20855099 119.32978301 -75.04178787 119.47623416 -77.875 119.625 C-78.66648438 119.66431641 -79.45796875 119.70363281 -80.2734375 119.74414062 C-85.34885441 120.01455218 -90.33875445 120.5002142 -95.375 121.1875 C-95.375 120.1975 -95.375 119.2075 -95.375 118.1875 C-94.715 118.1875 -94.055 118.1875 -93.375 118.1875 C-93.00955078 117.30191406 -93.00955078 117.30191406 -92.63671875 116.3984375 C-87.47118636 107.34676156 -73.22948089 103.32873363 -63.79870605 100.38270569 C-60.79270051 98.9003498 -60.35314193 97.89352412 -59.17773438 94.80249023 C-58.63993851 93.42920059 -58.63993851 93.42920059 -58.09127808 92.02816772 C-57.72084381 91.02758331 -57.35040955 90.0269989 -56.96875 88.99609375 C-56.56681427 87.95538727 -56.16487854 86.91468079 -55.75076294 85.84243774 C-54.44200358 82.44281364 -53.15876835 79.03413008 -51.875 75.625 C-50.98027636 73.29084706 -50.08362168 70.95743344 -49.18505859 68.62475586 C-47.39694776 63.9767233 -45.61757693 59.32551631 -43.84667969 54.67089844 C-40.87199413 46.85709359 -37.85118446 39.06194936 -34.79467773 31.27981567 C-34.02699656 29.31895631 -33.26775567 27.35500279 -32.50976562 25.39038086 C-23.19420761 1.54106651 -23.19420761 1.54106651 -15.6875 -2.125 C-9.89071304 -3.32810673 -5.22790195 -2.80757698 0 0 Z M-10.375 57.1875 C-13.71697602 65.85085386 -17.05060109 74.51738557 -20.375 83.1875 C-20.725625 84.10144531 -21.07625 85.01539063 -21.4375 85.95703125 C-22.29567862 88.19902289 -23.14910954 90.44273422 -24 92.6875 C-24.69996094 94.52828125 -24.69996094 94.52828125 -25.4140625 96.40625 C-26.48385446 99.01212913 -26.48385446 99.01212913 -26.375 101.1875 C-25.45203125 101.54199219 -24.5290625 101.89648438 -23.578125 102.26171875 C-14.09000644 106.07720354 -5.74238354 110.89674732 2.70800781 116.6550293 C7.23545775 119.7255316 11.50749495 122.23666586 16.625 124.1875 C14.57409632 117.80691076 12.26981502 111.54038977 9.89038086 105.27661133 C8.34063906 101.17226575 6.90119746 97.05434818 5.5625 92.875 C4.00153038 88.08888652 2.0598656 83.60781562 -0.078125 79.0546875 C-3.29265424 71.94786684 -5.94951763 64.59685024 -8.375 57.1875 C-9.035 57.1875 -9.695 57.1875 -10.375 57.1875 Z " fill="#DF3927" transform="translate(259.375,151.8125)"/>
<path d="M0 0 C4.97662102 4.14718418 6.97800234 8.93344401 9.375 14.8125 C9.70371094 15.58851563 10.03242188 16.36453125 10.37109375 17.1640625 C10.82935547 18.2778125 10.82935547 18.2778125 11.296875 19.4140625 C11.71598145 20.42847412 11.71598145 20.42847412 12.14355469 21.46337891 C12.625 23.1875 12.625 23.1875 11.625 25.1875 C10.635 24.5275 9.645 23.8675 8.625 23.1875 C5.71181086 22.35350125 5.71181086 22.35350125 2.625 23.1875 C-4.93663714 32.22457853 -8.11063372 45.62748343 -8.375 57.1875 C-9.035 57.1875 -9.695 57.1875 -10.375 57.1875 C-10.50028076 57.90139893 -10.62556152 58.61529785 -10.75463867 59.35083008 C-11.38331425 62.22551782 -12.26019137 64.82327575 -13.30078125 67.57421875 C-13.68556641 68.59580078 -14.07035156 69.61738281 -14.46679688 70.66992188 C-15.07104492 72.25643555 -15.07104492 72.25643555 -15.6875 73.875 C-16.07873047 74.91333984 -16.46996094 75.95167969 -16.87304688 77.02148438 C-19.29985547 83.44065471 -21.8059475 89.82409064 -24.375 96.1875 C-25.04214539 97.8539751 -25.70893496 99.52059281 -26.375 101.1875 C-25.715 101.5175 -25.055 101.8475 -24.375 102.1875 C-25.014375 102.435 -25.65375 102.6825 -26.3125 102.9375 C-28.56241541 104.00312433 -28.56241541 104.00312433 -29.125 106.3125 C-29.2075 106.93125 -29.29 107.55 -29.375 108.1875 C-30.035 108.1875 -30.695 108.1875 -31.375 108.1875 C-31.560625 109.3321875 -31.560625 109.3321875 -31.75 110.5 C-32.375 113.1875 -32.375 113.1875 -34.375 116.1875 C-34.64812146 118.29491836 -34.64812146 118.29491836 -34.6875 120.625 C-35.02098595 124.60335693 -35.84089838 127.71416667 -37.453125 131.359375 C-39.705124 136.58859302 -41.8503072 141.84660241 -43.93359375 147.14453125 C-44.24790848 147.94209335 -44.56222321 148.73965546 -44.88606262 149.56138611 C-45.8625547 152.04052673 -46.83761854 154.52022564 -47.8125 157 C-48.46147043 158.64913502 -49.1105584 160.2982238 -49.75976562 161.94726562 C-50.07855682 162.75704361 -50.39734802 163.56682159 -50.72579956 164.40113831 C-51.67087891 166.79976084 -52.61779464 169.19765218 -53.56494141 171.59545898 C-54.7481856 174.59150964 -55.92156711 177.59113 -57.08740234 180.59399414 C-57.61674817 181.94551984 -58.14620172 183.29700336 -58.67578125 184.6484375 C-59.13251221 185.82325684 -59.58924316 186.99807617 -60.05981445 188.20849609 C-61.97052128 192.53640489 -63.42606046 194.52955992 -67.375 197.1875 C-72.25661906 199.06125277 -76.65608403 199.7799459 -81.6875 198.125 C-86.75058691 195.8133684 -90.18913309 192.29378471 -92.375 187.1875 C-94.3637437 177.79422708 -89.503104 168.9266755 -85.9375 160.5 C-85.2948599 158.94567016 -84.65408446 157.39056812 -84.01513672 155.8347168 C-82.74185254 152.73725937 -81.46127198 149.64298789 -80.17529297 146.55078125 C-77.69583229 140.5679451 -75.34089134 134.53831922 -73 128.5 C-72.28392366 126.66273333 -71.56778611 124.82549052 -70.8515625 122.98828125 C-70.35915454 121.72143984 -69.86686934 120.45455064 -69.375 119.1875 C-72.20855099 119.32978301 -75.04178787 119.47623416 -77.875 119.625 C-78.66648438 119.66431641 -79.45796875 119.70363281 -80.2734375 119.74414062 C-85.34885441 120.01455218 -90.33875445 120.5002142 -95.375 121.1875 C-95.375 120.1975 -95.375 119.2075 -95.375 118.1875 C-94.715 118.1875 -94.055 118.1875 -93.375 118.1875 C-93.00955078 117.30191406 -93.00955078 117.30191406 -92.63671875 116.3984375 C-87.47118636 107.34676156 -73.22948089 103.32873363 -63.79870605 100.38270569 C-60.79270051 98.9003498 -60.35314193 97.89352412 -59.17773438 94.80249023 C-58.63993851 93.42920059 -58.63993851 93.42920059 -58.09127808 92.02816772 C-57.72084381 91.02758331 -57.35040955 90.0269989 -56.96875 88.99609375 C-56.56681427 87.95538727 -56.16487854 86.91468079 -55.75076294 85.84243774 C-54.44200358 82.44281364 -53.15876835 79.03413008 -51.875 75.625 C-50.98027636 73.29084706 -50.08362168 70.95743344 -49.18505859 68.62475586 C-47.39694776 63.9767233 -45.61757693 59.32551631 -43.84667969 54.67089844 C-40.87199413 46.85709359 -37.85118446 39.06194936 -34.79467773 31.27981567 C-34.02699656 29.31895631 -33.26775567 27.35500279 -32.50976562 25.39038086 C-23.19420761 1.54106651 -23.19420761 1.54106651 -15.6875 -2.125 C-9.89071304 -3.32810673 -5.22790195 -2.80757698 0 0 Z " fill="#2199C5" transform="translate(259.375,151.8125)"/>
<path d="M0 0 C3.74497097 0.36715402 5.2443398 0.96998474 8.1875 3.3125 C9.40298488 6.02396627 10.33794233 8.4921661 11.1875 11.3125 C12.7087469 16.15041891 14.35226849 20.79277121 16.50488281 25.39160156 C19.12374374 31.09737617 21.46071758 36.88392015 23.734375 42.734375 C24.1498761 43.79626038 24.5653772 44.85814575 24.99346924 45.95220947 C26.31097421 49.32120943 27.62433145 52.69180777 28.9375 56.0625 C30.23228261 59.37673523 31.5278974 62.69064424 32.8236084 66.0045166 C33.6781306 68.19262239 34.53108684 70.38134041 35.38244629 72.57067871 C37.50496233 78.02685477 39.64776243 83.4732996 41.83398438 88.90429688 C42.25367493 89.95425842 42.67336548 91.00421997 43.10577393 92.08599854 C43.89985051 94.07037716 44.700551 96.05212257 45.50897217 98.03070068 C45.86211487 98.91679016 46.21525757 99.80287964 46.57910156 100.71582031 C46.8909137 101.48613586 47.20272583 102.25645142 47.52398682 103.05010986 C48.26200907 105.56655461 48.3060216 107.70365758 48.1875 110.3125 C20.23675301 109.62064983 20.23675301 109.62064983 12.65917969 103.15527344 C9.93276398 100.01951835 8.70109035 97.38219243 7.25 93.5 C7.00258057 92.8498291 6.75516113 92.1996582 6.50024414 91.52978516 C5.71656493 89.46190079 4.95169827 87.38765183 4.1875 85.3125 C3.67573148 83.95135141 3.16271956 82.59066964 2.6484375 81.23046875 C1.63630768 78.54816311 0.63026702 75.86370994 -0.37011719 73.17700195 C-3.32027407 65.26119174 -6.29888068 57.37205301 -9.69213867 49.63427734 C-15.2476228 36.80913447 -15.69311629 27.65842506 -10.8125 14.3125 C-4.87168524 0.54129836 -4.87168524 0.54129836 0 0 Z " fill="#212121" transform="translate(264.8125,173.6875)"/>
<path d="M0 0 C1.20808518 2.21236464 2.10898671 4.21211878 2.98046875 6.5546875 C3.36795036 7.54071457 3.36795036 7.54071457 3.76325989 8.54666138 C4.58605745 10.65072642 5.38681924 12.76243276 6.1875 14.875 C6.73752166 16.29091336 7.28893799 17.7062858 7.84179688 19.12109375 C13.9107148 34.71428157 13.9107148 34.71428157 13 42 C10.83685247 46.09452926 7.81415889 51.0881159 3.1796875 52.58984375 C-2.1348482 53.58989079 -7.26449143 53.61064191 -12.375 51.8125 C-17.05573378 48.58056477 -19.41956722 44.58224491 -21.47265625 39.359375 C-21.89740234 38.28816406 -22.32214844 37.21695313 -22.75976562 36.11328125 C-23.18966797 35.00339844 -23.61957031 33.89351563 -24.0625 32.75 C-24.49626953 31.65558594 -24.93003906 30.56117188 -25.37695312 29.43359375 C-32.51251718 11.29601084 -32.51251718 11.29601084 -32 6 C-30.98421875 5.82984375 -29.9684375 5.6596875 -28.921875 5.484375 C-21.1455114 4.13081001 -13.85293697 2.52431649 -6.453125 -0.328125 C-3.62655296 -1.10228167 -2.64744054 -1.23930866 0 0 Z " fill="#414141" transform="translate(320,297)"/>
<path d="M0 0 C0.3690205 10.55808656 0.3690205 10.55808656 -2 15 C-2.66 15 -3.32 15 -4 15 C-3.938125 16.093125 -3.87625 17.18625 -3.8125 18.3125 C-4.02286428 22.44966411 -4.280205 22.39352979 -7 25 C-7 25.99 -7 26.98 -7 28 C-7 31 -7 31 -8.375 32.5 C-8.91125 32.995 -9.4475 33.49 -10 34 C-11.96295844 38.79834285 -13 43.80187659 -13 49 C-13.66 49 -14.32 49 -15 49 C-15.2475 50.03125 -15.495 51.0625 -15.75 52.125 C-16.54344375 54.97911419 -17.26823452 56.37390266 -19.0625 58.875 C-21.85031521 63.37147615 -22 67.79663178 -22 73 C-23.485 73.495 -23.485 73.495 -25 74 C-25.77403558 78.06368679 -26.0984702 81.86425173 -26 86 C-24.02 85.505 -24.02 85.505 -22 85 C-21.34 86.65 -20.68 88.3 -20 90 C-17.03 90 -14.06 90 -11 90 C-11 90.66 -11 91.32 -11 92 C-10.21625 91.649375 -9.4325 91.29875 -8.625 90.9375 C-7.75875 90.628125 -6.8925 90.31875 -6 90 C-5.34 90.33 -4.68 90.66 -4 91 C-3.67 88.36 -3.34 85.72 -3 83 C-2.01 83 -1.02 83 0 83 C0.65134925 81.43979133 1.29582964 79.87671421 1.9375 78.3125 C2.29714844 77.44238281 2.65679687 76.57226562 3.02734375 75.67578125 C3.9570312 73.11820735 4.54162625 70.6778677 5 68 C4.34 68 3.68 68 3 68 C3 65.36 3 62.72 3 60 C4.175625 60.0928125 4.175625 60.0928125 5.375 60.1875 C6.24125 60.125625 7.1075 60.06375 8 60 C9.93395001 57.09907498 10.30131941 56.10325263 10.625 52.8125 C10.810625 50.9253125 10.810625 50.9253125 11 49 C11.66 49 12.32 49 13 49 C13.495 48.01 13.495 48.01 14 47 C15.11352539 48.64648438 15.11352539 48.64648438 16 51 C15.38842773 53.65039062 15.38842773 53.65039062 14.18359375 56.65625 C13.74853516 57.76226562 13.31347656 58.86828125 12.86523438 60.0078125 C12.39408203 61.16023438 11.92292969 62.31265625 11.4375 63.5 C10.99341797 64.62148438 10.54933594 65.74296875 10.09179688 66.8984375 C8.74878152 70.27449352 7.37719871 73.6377626 6 77 C5.55052002 78.11938965 5.10104004 79.2387793 4.63793945 80.39208984 C4.20570068 81.45637207 3.77346191 82.5206543 3.328125 83.6171875 C2.94430664 84.56706543 2.56048828 85.51694336 2.16503906 86.49560547 C-0.01740236 91.18703132 -2.47468983 94.01958546 -7.32421875 95.90234375 C-12.44389198 97.22734341 -16.40878362 97.26323718 -21.24609375 95.0546875 C-25.40026703 92.5566323 -28.11284895 89.40847084 -30 85 C-31.9887437 75.60672708 -27.128104 66.7391755 -23.5625 58.3125 C-22.9198599 56.75817016 -22.27908446 55.20306812 -21.64013672 53.6472168 C-20.36685254 50.54975937 -19.08627198 47.45548789 -17.80029297 44.36328125 C-15.32083229 38.3804451 -12.96589134 32.35081922 -10.625 26.3125 C-9.90892366 24.47523333 -9.19278611 22.63799052 -8.4765625 20.80078125 C-7.98415454 19.53393984 -7.49186934 18.26705064 -7 17 C-9.83355099 17.14228301 -12.66678787 17.28873416 -15.5 17.4375 C-16.29148438 17.47681641 -17.08296875 17.51613281 -17.8984375 17.55664062 C-22.97385441 17.82705218 -27.96375445 18.3127142 -33 19 C-33 18.01 -33 17.02 -33 16 C-32.34 16 -31.68 16 -31 16 C-30.76023438 15.41089844 -30.52046875 14.82179688 -30.2734375 14.21484375 C-25.16317942 5.32675684 -9.96287509 -1.1321449 0 0 Z " fill="#70C0C1" transform="translate(197,254)"/>
<path d="M0 0 C-0.19335938 0.556875 -0.38671875 1.11375 -0.5859375 1.6875 C-0.84632813 2.450625 -1.10671875 3.21375 -1.375 4 C-1.75785156 5.11375 -1.75785156 5.11375 -2.1484375 6.25 C-3.24844334 9.80231243 -4.11969839 13.38693599 -5 17 C-5.56396484 17.02505615 -6.12792969 17.0501123 -6.70898438 17.07592773 C-9.30614882 17.19318301 -11.9030631 17.31531266 -14.5 17.4375 C-15.386875 17.47681641 -16.27375 17.51613281 -17.1875 17.55664062 C-22.50615127 17.81084087 -27.7256256 18.26676337 -33 19 C-33 18.01 -33 17.02 -33 16 C-32.34 16 -31.68 16 -31 16 C-30.76023438 15.41089844 -30.52046875 14.82179688 -30.2734375 14.21484375 C-25.16317942 5.32675684 -9.96287509 -1.1321449 0 0 Z " fill="#DE4D28" transform="translate(197,254)"/>
<path d="M0 0 C0.33 0 0.66 0 1 0 C1.16682272 4.92127034 1.24828052 8.50343896 -1 13 C-1.66 13 -2.32 13 -3 13 C-2.938125 14.093125 -2.87625 15.18625 -2.8125 16.3125 C-3.02286428 20.44966411 -3.280205 20.39352979 -6 23 C-6 23.99 -6 24.98 -6 26 C-6 29 -6 29 -7.375 30.5 C-7.91125 30.995 -8.4475 31.49 -9 32 C-10.96295844 36.79834285 -12 41.80187659 -12 47 C-12.66 47 -13.32 47 -14 47 C-14.37125 48.60875 -14.37125 48.60875 -14.75 50.25 C-15.99883146 53.99649437 -17.02488658 55.52073882 -20 58 C-19.77358124 48.09664017 -16.14497109 39.9025611 -12.4375 30.875 C-11.81456895 29.3312073 -11.19281401 27.78693949 -10.57226562 26.2421875 C-9.06168599 22.4891745 -7.5353189 18.74295659 -6 15 C-5.34 15 -4.68 15 -4 15 C-3.896875 13.824375 -3.79375 12.64875 -3.6875 11.4375 C-3.17085042 7.17514097 -1.8491639 3.85912466 0 0 Z " fill="#4EB1C1" transform="translate(196,256)"/>
<path d="M0 0 C5.18720934 4.20584541 6.47275469 8.60543632 8 15 C7.40058594 14.68289062 6.80117188 14.36578125 6.18359375 14.0390625 C3.078197 12.56136029 1.39643235 12.30685054 -2 13 C-9.14675275 21.5412411 -11.92700145 34.25809844 -14 45 C-14.33 45 -14.66 45 -15 45 C-16.17754283 39.89731442 -16.11736682 35.10102242 -15 30 C-14.34 29.01 -13.68 28.02 -13 27 C-12.5359375 25.5459375 -12.5359375 25.5459375 -12.0625 24.0625 C-11.04118575 21.11871186 -9.8664982 19.43456287 -8 17 C-7.64587656 15.67203709 -7.31478446 14.33783393 -7 13 C-6.03112419 10.98473831 -5.0358679 8.98166034 -4 7 C-2.68 7 -1.36 7 0 7 C0 5.68 0 4.36 0 3 C0 2.01 0 1.02 0 0 Z " fill="#3675A6" transform="translate(264,162)"/>
<path d="M0 0 C7.07664968 0.64534275 14.09498034 1.53070638 21.125 2.5625 C22.08148438 2.70107422 23.03796875 2.83964844 24.0234375 2.98242188 C26.34924935 3.31966459 28.67475384 3.6588826 31 4 C31.33 3.01 31.66 2.02 32 1 C32 1.66 32 2.32 32 3 C33.75376953 2.7834375 33.75376953 2.7834375 35.54296875 2.5625 C37.09112699 2.37484446 38.63930513 2.1873531 40.1875 2 C40.95642578 1.90460938 41.72535156 1.80921875 42.51757812 1.7109375 C46.36928811 1.24807106 50.11170851 0.87532532 54 1 C52.62004354 5.67062185 50.5130725 7.50086323 46.5625 10.25 C45.11037109 11.27867187 45.11037109 11.27867187 43.62890625 12.328125 C41 14 41 14 38 15 C38.33 13.68 38.66 12.36 39 11 C40.32 11 41.64 11 43 11 C43.33 10.01 43.66 9.02 44 8 C44.66 8 45.32 8 46 8 C45.505 7.01 45.505 7.01 45 6 C33.78 5.67 22.56 5.34 11 5 C11 4.34 11 3.68 11 3 C10.28972656 2.95101563 9.57945312 2.90203125 8.84765625 2.8515625 C7.92855469 2.77679688 7.00945312 2.70203125 6.0625 2.625 C5.14597656 2.55539062 4.22945313 2.48578125 3.28515625 2.4140625 C2.15400391 2.20910156 2.15400391 2.20910156 1 2 C0.67 1.34 0.34 0.68 0 0 Z " fill="#C33F34" transform="translate(282,280)"/>
<path d="M0 0 C0.33 0.99 0.66 1.98 1 3 C0.195625 3.226875 -0.60875 3.45375 -1.4375 3.6875 C-2.283125 4.120625 -3.12875 4.55375 -4 5 C-4.89386164 7.54775306 -4.89386164 7.54775306 -5 10 C-6.65 9.67 -8.3 9.34 -10 9 C-10 9.66 -10 10.32 -10 11 C-10.99 11.66 -11.98 12.32 -13 13 C-12.67 14.32 -12.34 15.64 -12 17 C-12.66 17 -13.32 17 -14 17 C-14 17.66 -14 18.32 -14 19 C-14.61875 19.103125 -15.2375 19.20625 -15.875 19.3125 C-18.36526484 19.87525373 -18.36526484 19.87525373 -20 23 C-20.66 23 -21.32 23 -22 23 C-19.98746291 15.01529998 -17.3127281 7.60052288 -11 2 C-7.20719656 0.43340728 -4.09648206 -0.24096953 0 0 Z " fill="#2269A9" transform="translate(252,149)"/>
<path d="M0 0 C3.125 0.375 3.125 0.375 5 2.5625 C6.147074 5.43018499 6.38656512 7.32340693 6.125 10.375 C5.465 10.045 4.805 9.715 4.125 9.375 C4.125 7.395 4.125 5.415 4.125 3.375 C2.475 3.375 0.825 3.375 -0.875 3.375 C-1.0986068 6.3004644 -1.0986068 6.3004644 0.125 8.375 C-0.4525 8.601875 -1.03 8.82875 -1.625 9.0625 C-6.51413571 11.91449583 -8.47248736 16.06548784 -9.875 21.375 C-10.59270915 24.69938889 -11.25383762 28.03129611 -11.875 31.375 C-11.215 31.705 -10.555 32.035 -9.875 32.375 C-10.205 33.365 -10.535 34.355 -10.875 35.375 C-12.195 35.045 -13.515 34.715 -14.875 34.375 C-14.64670098 25.55435622 -10.9296906 1.42561182 0 0 Z " fill="#061622" transform="translate(264.875,173.625)"/>
<path d="M0 0 C2.97287629 4.45931443 4.12506755 7.6578289 4 13 C-4.82230205 12.78162619 -13.29455697 12.24147044 -21.875 10.0625 C-22.54595703 9.89266602 -23.21691406 9.72283203 -23.90820312 9.54785156 C-27.05049392 8.69836512 -29.26243543 7.82504304 -32 6 C-31.34 4.68 -30.68 3.36 -30 2 C-29.01 3.485 -29.01 3.485 -28 5 C-23.69897745 6.7957554 -19.41428864 7.50353658 -14.8125 8.125 C-13.60207031 8.29257812 -12.39164062 8.46015625 -11.14453125 8.6328125 C-8.03102384 9.05799107 -8.03102384 9.05799107 -5 9 C-4.67 8.01 -4.34 7.02 -4 6 C-1.9375 4.8125 -1.9375 4.8125 0 4 C0 2.68 0 1.36 0 0 Z " fill="#452621" transform="translate(309,271)"/>
<path d="M0 0 C5.91647283 0.53786117 10.04100037 2.10336498 15.21484375 5.01953125 C11.92507567 6.11612061 10.50180608 5.81906263 7.21484375 5.01953125 C7.21484375 4.35953125 7.21484375 3.69953125 7.21484375 3.01953125 C4.57484375 3.01953125 1.93484375 3.01953125 -0.78515625 3.01953125 C-1.43351667 4.76859656 -2.07874409 6.51882344 -2.72265625 8.26953125 C-3.08230469 9.2440625 -3.44195312 10.21859375 -3.8125 11.22265625 C-5.31512472 15.52897541 -5.31512472 15.52897541 -5.78515625 20.01953125 C-6.77515625 20.01953125 -7.76515625 20.01953125 -8.78515625 20.01953125 C-8.78515625 21.00953125 -8.78515625 21.99953125 -8.78515625 23.01953125 C-8.00140625 23.14328125 -7.21765625 23.26703125 -6.41015625 23.39453125 C-3.78515625 24.01953125 -3.78515625 24.01953125 -1.78515625 26.01953125 C-1.78515625 26.67953125 -1.78515625 27.33953125 -1.78515625 28.01953125 C-4.75709475 26.89501398 -7.11956312 25.79659334 -9.78515625 24.01953125 C-11.20495305 17.13799358 -9.25478945 11.87453727 -5.78515625 6.01953125 C-5.12515625 6.01953125 -4.46515625 6.01953125 -3.78515625 6.01953125 C-3.64078125 5.21515625 -3.49640625 4.41078125 -3.34765625 3.58203125 C-2.56752304 0.02809106 -2.56752304 0.02809106 0 0 Z " fill="#AB6A5E" transform="translate(233.78515625,253.98046875)"/>
<path d="M0 0 C0.969375 0.309375 1.93875 0.61875 2.9375 0.9375 C6.66618454 2.02789241 10.31279533 2.39408782 14.1796875 2.65625 C14.78039062 2.7696875 15.38109375 2.883125 16 3 C16.33 3.66 16.66 4.32 17 5 C19.52733235 5.65555119 19.52733235 5.65555119 22 6 C22 6.66 22 7.32 22 8 C28.27 8 34.54 8 41 8 C39.68 9.65 38.36 11.3 37 13 C37 12.01 37 11.02 37 10 C36.04222656 10.06960938 35.08445312 10.13921875 34.09765625 10.2109375 C26.11678644 10.60370481 19.31227064 9.94851489 11.75 7.25 C11.03593994 6.99782715 10.32187988 6.7456543 9.58618164 6.48583984 C5.57458852 4.94613345 2.77701291 3.29233489 0 0 Z " fill="#C8474A" transform="translate(250,293)"/>
<path d="M0 0 C0.66 0.33 1.32 0.66 2 1 C1.01 2.485 1.01 2.485 0 4 C-0.99 4 -1.98 4 -3 4 C-3.33 5.32 -3.66 6.64 -4 8 C2.6 8 9.2 8 16 8 C16.33 6.68 16.66 5.36 17 4 C18.24546405 6.49092811 17.7767578 7.41080733 17 10 C16.43603516 10.02505615 15.87207031 10.0501123 15.29101562 10.07592773 C12.69385118 10.19318301 10.0969369 10.31531266 7.5 10.4375 C6.613125 10.47681641 5.72625 10.51613281 4.8125 10.55664062 C-0.50615127 10.81084087 -5.7256256 11.26676337 -11 12 C-11 11.01 -11 10.02 -11 9 C-10.34 9 -9.68 9 -9 9 C-8.814375 8.443125 -8.62875 7.88625 -8.4375 7.3125 C-6.33639286 3.93245808 -3.29334006 2.14859619 0 0 Z " fill="#C1614B" transform="translate(175,261)"/>
<path d="M0 0 C1.32 0.66 2.64 1.32 4 2 C3.34 2 2.68 2 2 2 C1.90203125 2.54527344 1.8040625 3.09054688 1.703125 3.65234375 C0.69884875 8.71701276 -0.78077491 13.12953578 -2.99609375 17.7890625 C-3.98836568 19.97437733 -4.74776739 22.16024937 -5.5 24.4375 C-7.10254481 28.24354392 -7.43850628 28.54766957 -11 30 C-9.0173911 22.93487572 -6.592956 16.16273165 -3.8125 9.375 C-3.44447266 8.46621094 -3.07644531 7.55742187 -2.69726562 6.62109375 C-1.80216521 4.41240441 -0.9030465 2.20544952 0 0 Z " fill="#49A4C8" transform="translate(218,200)"/>
<path d="M0 0 C0.99 0.66 1.98 1.32 3 2 C1.33333333 7 -0.33333333 12 -2 17 C-2.66 17 -3.32 17 -4 17 C-4.33 17.99 -4.66 18.98 -5 20 C-6.65 20.33 -8.3 20.66 -10 21 C-10 18.36 -10 15.72 -10 13 C-9.21625 13.061875 -8.4325 13.12375 -7.625 13.1875 C-6.75875 13.125625 -5.8925 13.06375 -5 13 C-3.06604999 10.09907498 -2.69868059 9.10325263 -2.375 5.8125 C-2.189375 3.9253125 -2.189375 3.9253125 -2 2 C-1.34 2 -0.68 2 0 2 C0 1.34 0 0.68 0 0 Z " fill="#46B4C5" transform="translate(210,301)"/>
<path d="M0 0 C0.99 0 1.98 0 3 0 C3.23221701 4.49837513 2.64788503 7.5250322 0.8125 11.625 C0.36132812 12.65367187 -0.08984375 13.68234375 -0.5546875 14.7421875 C-1.03164062 15.81726563 -1.50859375 16.89234375 -2 18 C-2.94292592 20.24773151 -3.88067428 22.49764411 -4.8125 24.75 C-5.54166667 26.5 -6.27083333 28.25 -7 30 C-7.33 30 -7.66 30 -8 30 C-8.49377124 24.0747451 -7.95879702 20.1134075 -5.0234375 14.9296875 C-3.49931396 12.05595837 -2.7867816 9.14712639 -2 6 C-1.67 6 -1.34 6 -1 6 C-0.67 4.02 -0.34 2.04 0 0 Z " fill="#45AAC3" transform="translate(221,272)"/>
<path d="M0 0 C-6.34602148 3.55208724 -12.29464899 5.79318897 -19.43359375 7.2265625 C-22.13307804 8.04010571 -23.24245136 8.8432793 -25 11 C-27.4375 10.1875 -27.4375 10.1875 -30 9 C-30.33 8.01 -30.66 7.02 -31 6 C-29.98421875 5.82984375 -28.9684375 5.6596875 -27.921875 5.484375 C-20.11886603 4.12633761 -12.79089457 2.50246469 -5.35546875 -0.328125 C-3 -1 -3 -1 0 0 Z " fill="#45292C" transform="translate(319,297)"/>
<path d="M0 0 C0.66 0 1.32 0 2 0 C1.72192505 0.79942017 1.72192505 0.79942017 1.43823242 1.61499023 C-0.52786884 7.37370396 -2.17441298 13.17014601 -3.6875 19.0625 C-3.91244141 19.92810547 -4.13738281 20.79371094 -4.36914062 21.68554688 C-4.91551056 23.78965238 -5.45815403 25.89472496 -6 28 C-6.33 28 -6.66 28 -7 28 C-8.17754283 22.89731442 -8.11736682 18.10102242 -7 13 C-6.34 12.01 -5.68 11.02 -5 10 C-4.690625 9.030625 -4.38125 8.06125 -4.0625 7.0625 C-3.048487 4.13975665 -2.08657782 2.2604593 0 0 Z " fill="#236EA1" transform="translate(256,179)"/>
<path d="M0 0 C0.33 0 0.66 0 1 0 C1.99 3.63 2.98 7.26 4 11 C5.32 10.67 6.64 10.34 8 10 C10 16.625 10 16.625 10 20 C6.21799679 19.13554212 4.36439934 17.58497736 2.1875 14.5 C-0.60557309 9.75177575 -0.49486305 5.3665149 0 0 Z " fill="#7EC9C8" transform="translate(167,329)"/>
<path d="M0 0 C-0.33 1.65 -0.66 3.3 -1 5 C-1.33 4.01 -1.66 3.02 -2 2 C-2.68449219 2.64453125 -3.36898437 3.2890625 -4.07421875 3.953125 C-7.54562508 6.38171902 -9.6205163 6.58062692 -13.8125 6.75 C-15.55466797 6.83507812 -15.55466797 6.83507812 -17.33203125 6.921875 C-18.65267578 6.96054687 -18.65267578 6.96054687 -20 7 C-17.03202704 1.06405408 -6.11854666 -0.69528939 0 0 Z " fill="#D66A44" transform="translate(197,254)"/>
<path d="M0 0 C13.81776765 6.15034169 13.81776765 6.15034169 19 10 C15.8035914 11.06546953 13.34252724 11.07427838 10 11 C9.79375 10.360625 9.5875 9.72125 9.375 9.0625 C8.10461791 6.65074923 8.10461791 6.65074923 4.875 6.25 C3.92625 6.1675 2.9775 6.085 2 6 C1.34 4.02 0.68 2.04 0 0 Z " fill="#CB5445" transform="translate(263,269)"/>
<path d="M0 0 C-3.74218273 3.43958035 -8.02685009 4.40070055 -12.8125 5.6875 C-13.59431641 5.91244141 -14.37613281 6.13738281 -15.18164062 6.36914062 C-19.9410379 7.67727906 -24.06736498 8.24366822 -29 8 C-26.30255953 5.30255953 -24.1047769 5.26932068 -20.375 4.5625 C-16.2455664 3.73407729 -12.34148912 2.90107139 -8.4375 1.3125 C-5.2878134 0.10989239 -3.31449209 -0.31073363 0 0 Z " fill="#BA2F30" transform="translate(318,295)"/>
<path d="M0 0 C0.33 0.99 0.66 1.98 1 3 C0.195625 3.226875 -0.60875 3.45375 -1.4375 3.6875 C-2.283125 4.120625 -3.12875 4.55375 -4 5 C-4.89386164 7.54775306 -4.89386164 7.54775306 -5 10 C-6.65 9.67 -8.3 9.34 -10 9 C-10 9.66 -10 10.32 -10 11 C-11.32 10.67 -12.64 10.34 -14 10 C-11.94766315 7.7522025 -10.99332739 6.9977758 -8 6 C-8 4.68 -8 3.36 -8 2 C-4.77208445 -0.1519437 -3.71599191 -0.20086443 0 0 Z " fill="#3176B7" transform="translate(252,149)"/>
<path d="M0 0 C0.33 0.66 0.66 1.32 1 2 C2.75376953 1.7834375 2.75376953 1.7834375 4.54296875 1.5625 C6.09112699 1.37484446 7.63930513 1.1873531 9.1875 1 C9.95642578 0.90460938 10.72535156 0.80921875 11.51757812 0.7109375 C15.36928811 0.24807106 19.11170851 -0.12467468 23 0 C21.52307692 4.67692308 21.52307692 4.67692308 18.875 6.3125 C18.25625 6.539375 17.6375 6.76625 17 7 C17 5.68 17 4.36 17 3 C11.39 3 5.78 3 0 3 C0 2.01 0 1.02 0 0 Z " fill="#CB726F" transform="translate(313,281)"/>
<path d="M0 0 C0.33 0 0.66 0 1 0 C1.16682272 4.92127034 1.24828052 8.50343896 -1 13 C-1.66 13 -2.32 13 -3 13 C-2.938125 14.093125 -2.87625 15.18625 -2.8125 16.3125 C-3 20 -3 20 -4.5 21.9375 C-4.995 22.288125 -5.49 22.63875 -6 23 C-6.79953138 19.71303767 -7.09658936 18.28976808 -6 15 C-5.34 15 -4.68 15 -4 15 C-3.896875 13.824375 -3.79375 12.64875 -3.6875 11.4375 C-3.17085042 7.17514097 -1.8491639 3.85912466 0 0 Z " fill="#4BA1B7" transform="translate(196,256)"/>
<path d="M0 0 C0.99 1.32 1.98 2.64 3 4 C2.01 4.495 2.01 4.495 1 5 C0.64731066 6.6626783 0.31966139 8.33065717 0 10 C-0.92924287 12.69780188 -1.96325853 15.34053275 -3 18 C-4.82695589 14.91039891 -5.22295727 12.93229631 -4.8125 9.375 C-4.73644531 8.59898437 -4.66039062 7.82296875 -4.58203125 7.0234375 C-4 5 -4 5 -1 3 C-0.67 2.01 -0.34 1.02 0 0 Z " fill="#328CBE" transform="translate(248,204)"/>
<path d="M0 0 C0.66 0.33 1.32 0.66 2 1 C-0.03807293 8.1178153 -2.40344742 15.06707281 -5 22 C-5.33 22 -5.66 22 -6 22 C-6.51137226 15.09647445 -4.86964374 10.25172386 -2 4 C-1.34 4 -0.68 4 0 4 C0 2.68 0 1.36 0 0 Z " fill="#6EBDC7" transform="translate(205,317)"/>
<path d="M0 0 C3.125 0.375 3.125 0.375 5 2.5625 C6.147074 5.43018499 6.38656512 7.32340693 6.125 10.375 C5.465 10.045 4.805 9.715 4.125 9.375 C4.125 7.395 4.125 5.415 4.125 3.375 C2.475 3.375 0.825 3.375 -0.875 3.375 C-1.0986068 6.3004644 -1.0986068 6.3004644 0.125 8.375 C-1.525 9.035 -3.175 9.695 -4.875 10.375 C-4.73450482 8.89531676 -4.58745174 7.41625484 -4.4375 5.9375 C-4.35628906 5.11378906 -4.27507812 4.29007813 -4.19140625 3.44140625 C-3.7001049 0.23278386 -3.3157449 0.43248846 0 0 Z " fill="#040C14" transform="translate(264.875,173.625)"/>
<path d="M0 0 C2.29633824 3.44450737 2.54016485 5.93812283 3 10 C-0.63 10 -4.26 10 -8 10 C-7.01 9.67 -6.02 9.34 -5 9 C-4.67 8.01 -4.34 7.02 -4 6 C-1.9375 4.8125 -1.9375 4.8125 0 4 C0 2.68 0 1.36 0 0 Z " fill="#424241" transform="translate(309,271)"/>
<path d="M0 0 C1.32 0.66 2.64 1.32 4 2 C3.34 2 2.68 2 2 2 C1.90203125 2.60328125 1.8040625 3.2065625 1.703125 3.828125 C0.79053096 8.70578282 0.12404277 11.83823388 -4 15 C-3.43179252 9.54520815 -2.05362055 5.08940744 0 0 Z " fill="#429AC1" transform="translate(218,200)"/>
<path d="M0 0 C1.9453125 -0.29296875 1.9453125 -0.29296875 4.125 -0.1875 C5.40375 -0.125625 6.6825 -0.06375 8 0 C8 1.32 8 2.64 8 4 C5.50590939 5.57035335 4.29556584 6.0274945 1.3125 5.75 C0.1678125 5.37875 0.1678125 5.37875 -1 5 C-1.33 4.34 -1.66 3.68 -2 3 C-1.34 2.01 -0.68 1.02 0 0 Z " fill="#59BDBE" transform="translate(178,344)"/>
<path d="M0 0 C5.13373162 1.39038565 10.03739743 3.08460953 15 5 C15 5.66 15 6.32 15 7 C16.98 7 18.96 7 21 7 C21 7.66 21 8.32 21 9 C13.4395257 7.64161691 5.33636231 5.89013576 0 0 Z " fill="#CF6667" transform="translate(250,293)"/>
<path d="M0 0 C0.33 0 0.66 0 1 0 C1.24954005 1.43410368 1.47392642 2.87260072 1.6875 4.3125 C1.81511719 5.11300781 1.94273437 5.91351563 2.07421875 6.73828125 C2 9 2 9 0.5625 10.625 C0.046875 11.07875 -0.46875 11.5325 -1 12 C-1.72197162 14.60611077 -1.72197162 14.60611077 -2 17 C-2.99 16.34 -3.98 15.68 -5 15 C-1.92482916 4.44191344 -1.92482916 4.44191344 0 0 Z " fill="#56B4C7" transform="translate(188,276)"/>
<path d="M0 0 C0.66 0.33 1.32 0.66 2 1 C0.33846988 6.85659906 -1.47041916 12.4590134 -4 18 C-5.19163858 14.54504787 -4.79568286 12.44534575 -3.6875 9 C-3.42324219 8.154375 -3.15898437 7.30875 -2.88671875 6.4375 C-2.06780273 4.18638282 -1.1207748 2.11430007 0 0 Z " fill="#459DC0" transform="translate(242,221)"/>
<path d="M0 0 C-6.6276327 3.8741903 -11.29711007 5.6212008 -19 5 C-15.74333969 3.26573029 -12.42547821 2.00973663 -8.9375 0.8125 C-7.37322266 0.26529297 -7.37322266 0.26529297 -5.77734375 -0.29296875 C-3 -1 -3 -1 0 0 Z " fill="#5D2B27" transform="translate(319,297)"/>
<path d="M0 0 C4.455 0.99 4.455 0.99 9 2 C9 2.99 9 3.98 9 5 C10.32 5 11.64 5 13 5 C13 6.32 13 7.64 13 9 C9.91220974 7.53400783 7.09532795 5.82973607 4.25 3.9375 C3.45078125 3.41027344 2.6515625 2.88304687 1.828125 2.33984375 C1.22484375 1.89769531 0.6215625 1.45554687 0 1 C0 0.67 0 0.34 0 0 Z " fill="#D35954" transform="translate(233,282)"/>
<path d="M0 0 C0.33 0 0.66 0 1 0 C1.20190089 6.35987804 0.6277833 11.85221129 -1 18 C-1.33 18 -1.66 18 -2 18 C-3.17754283 12.89731442 -3.11736682 8.10102242 -2 3 C-1.34 2.01 -0.68 1.02 0 0 Z " fill="#1E75AB" transform="translate(251,189)"/>
<path d="M0 0 C0.33 0 0.66 0 1 0 C1.29341888 5.67276511 1.00559652 8.99067246 -2 14 C-2.66 14 -3.32 14 -4 14 C-3.36843005 8.94744036 -1.86540627 4.70406799 0 0 Z " fill="#4893BE" transform="translate(224,185)"/>
<path d="M0 0 C1.27450447 0.59638333 2.54446877 1.20247416 3.8125 1.8125 C4.52019531 2.14894531 5.22789062 2.48539062 5.95703125 2.83203125 C8.01129035 4.00645471 9.41616278 5.25628016 11 7 C10.67 7.66 10.34 8.32 10 9 C9.34 9 8.68 9 8 9 C8 8.34 8 7.68 8 7 C7.34 7 6.68 7 6 7 C6 6.34 6 5.68 6 5 C3.69 4.67 1.38 4.34 -1 4 C-0.67 2.68 -0.34 1.36 0 0 Z " fill="#D66F5A" transform="translate(252,262)"/>
<path d="M0 0 C0.66 0 1.32 0 2 0 C1.38461538 6.52307692 1.38461538 6.52307692 -0.5625 8.9375 C-1.036875 9.288125 -1.51125 9.63875 -2 10 C-2.103125 9.38125 -2.20625 8.7625 -2.3125 8.125 C-2.87525373 5.63473516 -2.87525373 5.63473516 -6 4 C-4.35 3.67 -2.7 3.34 -1 3 C-0.67 2.01 -0.34 1.02 0 0 Z " fill="#D7572E" transform="translate(193,256)"/>
<path d="M0 0 C0.33 0 0.66 0 1 0 C1 1.98 1 3.96 1 6 C0.67 6 0.34 6 0 6 C-0.66 7.98 -1.32 9.96 -2 12 C-4 10 -4 10 -4.25 7.5625 C-4 5 -4 5 -2 2 C-1.34 2 -0.68 2 0 2 C0 1.34 0 0.68 0 0 Z " fill="#1EA4CB" transform="translate(220,273)"/>
<path d="M0 0 C2.475 0.99 2.475 0.99 5 2 C5 3.32 5 4.64 5 6 C3.02 6.99 3.02 6.99 1 8 C0.34 5.69 -0.32 3.38 -1 1 C-0.67 0.67 -0.34 0.34 0 0 Z " fill="#3A3A3A" transform="translate(274,266)"/>
<path d="M0 0 C5.34844008 0.53484401 9.35796103 2.46690767 14 5 C10.71023192 6.09658936 9.28696233 5.79953138 6 5 C6 4.34 6 3.68 6 3 C3.69 3 1.38 3 -1 3 C-0.67 2.01 -0.34 1.02 0 0 Z " fill="#DA886D" transform="translate(235,254)"/>
<path d="M0 0 C0.99 0 1.98 0 3 0 C3 0.66 3 1.32 3 2 C2.01 2.495 2.01 2.495 1 3 C0.26761203 4.8080828 -0.38884072 6.64742344 -1 8.5 C-1.61115928 10.35257656 -2.26761203 12.1919172 -3 14 C-3.99 14.495 -3.99 14.495 -5 15 C-4.55065113 12.87308203 -4.09023527 10.74849961 -3.625 8.625 C-3.36976563 7.44164062 -3.11453125 6.25828125 -2.8515625 5.0390625 C-2 2 -2 2 0 0 Z " fill="#C55B3A" transform="translate(232,254)"/>
<path d="M0 0 C1.60577252 4.01443129 0.36580696 7.04634827 -1 11 C-1.99 12.485 -1.99 12.485 -3 14 C-3.66 14 -4.32 14 -5 14 C-4.54636829 12.41531323 -4.08688548 10.83230076 -3.625 9.25 C-3.36976563 8.36828125 -3.11453125 7.4865625 -2.8515625 6.578125 C-2.0790066 4.23919428 -1.16374324 2.16557438 0 0 Z " fill="#518DB7" transform="translate(235,158)"/>
<path d="M0 0 C0.33 0 0.66 0 1 0 C1 1.65 1 3.3 1 5 C-4.61 4.67 -10.22 4.34 -16 4 C-16 3.67 -16 3.34 -16 3 C-8.08 2.505 -8.08 2.505 0 2 C0 1.34 0 0.68 0 0 Z " fill="#602F2C" transform="translate(312,279)"/>
<path d="M0 0 C0.33 0 0.66 0 1 0 C4.44419134 9.41002278 4.44419134 9.41002278 4 14 C3.34 14 2.68 14 2 14 C0.09391902 10.78817851 -0.22266247 8.46117397 -0.125 4.75 C-0.09792969 3.41195313 -0.09792969 3.41195313 -0.0703125 2.046875 C-0.04710937 1.37140625 -0.02390625 0.6959375 0 0 Z " fill="#8CC8C8" transform="translate(167,329)"/>
<path d="M0 0 C0.33 0.66 0.66 1.32 1 2 C3.06102235 2.39138678 3.06102235 2.39138678 5.4375 2.5 C9.7787307 2.7787307 9.7787307 2.7787307 12 5 C8.66620913 6.11126362 6.37290439 5.95133201 3 5 C2.01 4.34 1.02 3.68 0 3 C0 2.01 0 1.02 0 0 Z " fill="#D55D36" transform="translate(240,257)"/>
<path d="M0 0 C0.66 0 1.32 0 2 0 C2.93423645 3.01031744 3.04449911 3.86650268 2 7 C1.65772583 8.33106622 1.32248257 9.66400079 1 11 C0.34 11 -0.32 11 -1 11 C-2.26264601 6.70700357 -1.62950412 4.12168689 0 0 Z " fill="#1587BF" transform="translate(242,211)"/>
<path d="M0 0 C0.66 0.66 1.32 1.32 2 2 C2.99 1.67 3.98 1.34 5 1 C5.33 2.32 5.66 3.64 6 5 C3.69 5.33 1.38 5.66 -1 6 C-0.67 4.02 -0.34 2.04 0 0 Z " fill="#1481C0" transform="translate(226,186)"/>
<path d="M0 0 C1.32 0.33 2.64 0.66 4 1 C-0.455 3.97 -0.455 3.97 -5 7 C-5.33 6.01 -5.66 5.02 -6 4 C-4.35 3.67 -2.7 3.34 -1 3 C-0.67 2.01 -0.34 1.02 0 0 Z " fill="#D47271" transform="translate(326,288)"/>
<path d="M0 0 C-0.33 1.65 -0.66 3.3 -1 5 C-1.99 5 -2.98 5 -4 5 C-4.66 5.66 -5.32 6.32 -6 7 C-6.33 5.68 -6.66 4.36 -7 3 C-3.375 0 -3.375 0 0 0 Z " fill="#1094C4" transform="translate(214,227)"/>
<path d="M0 0 C0.99 0.33 1.98 0.66 3 1 C3.33 2.65 3.66 4.3 4 6 C3.34 6 2.68 6 2 6 C2 6.66 2 7.32 2 8 C1.01 7.67 0.02 7.34 -1 7 C-0.67 4.69 -0.34 2.38 0 0 Z " fill="#1972B4" transform="translate(236,160)"/>
<path d="M0 0 C0.66 0.33 1.32 0.66 2 1 C1.67 1.99 1.34 2.98 1 4 C1.99 4.66 2.98 5.32 4 6 C1.36 6.33 -1.28 6.66 -4 7 C-4 6.01 -4 5.02 -4 4 C-3.34 4 -2.68 4 -2 4 C-1.34 2.68 -0.68 1.36 0 0 Z " fill="#DAA194" transform="translate(168,266)"/>
<path d="M0 0 C2.475 0.495 2.475 0.495 5 1 C5.33 2.98 5.66 4.96 6 7 C5.01 7.495 5.01 7.495 4 8 C3.01 7.01 2.02 6.02 1 5 C1.66 4.01 2.32 3.02 3 2 C2.01 2.33 1.02 2.66 0 3 C0 2.01 0 1.02 0 0 Z " fill="#1F6AAD" transform="translate(256,153)"/>
<path d="M0 0 C1.47118907 3.82509158 0.45442741 6.28312995 -1 10 C-1.33 10.66 -1.66 11.32 -2 12 C-2.66 12 -3.32 12 -4 12 C-3.52309796 10.37433394 -3.04340334 8.74948689 -2.5625 7.125 C-2.29566406 6.22007812 -2.02882812 5.31515625 -1.75390625 4.3828125 C-1 2 -1 2 0 0 Z " fill="#75C0C5" transform="translate(176,307)"/>
<path d="M0 0 C1.32 0.33 2.64 0.66 4 1 C4 2.65 4 4.3 4 6 C2.02 5.34 0.04 4.68 -2 4 C-1.34 2.68 -0.68 1.36 0 0 Z " fill="#272A26" transform="translate(284,273)"/>
<path d="M0 0 C0.99 0 1.98 0 3 0 C3.25 2.8125 3.25 2.8125 3 6 C1 7.875 1 7.875 -1 9 C-0.67 6.03 -0.34 3.06 0 0 Z " fill="#5A95AC" transform="translate(221,272)"/>
<path d="M0 0 C2.5625 2.25 2.5625 2.25 5 5 C4.8125 7.3125 4.8125 7.3125 4 9 C3.67 8.34 3.34 7.68 3 7 C2.34 7 1.68 7 1 7 C0.67 4.69 0.34 2.38 0 0 Z " fill="#3879AE" transform="translate(264,162)"/>
<path d="M0 0 C1.485 0.99 1.485 0.99 3 2 C2.01 4.97 1.02 7.94 0 11 C-0.33 11 -0.66 11 -1 11 C-0.67 7.37 -0.34 3.74 0 0 Z " fill="#5CB7C4" transform="translate(210,301)"/>
<path d="M0 0 C1.32 0 2.64 0 4 0 C4.33 1.32 4.66 2.64 5 4 C2.69 4 0.38 4 -2 4 C-1.34 2.68 -0.68 1.36 0 0 Z " fill="#DE2526" transform="translate(280,297)"/>
<path d="M0 0 C3.96 1.98 3.96 1.98 8 4 C7.01 4.495 7.01 4.495 6 5 C6 5.66 6 6.32 6 7 C3.00675737 5.9024777 2.15389099 5.32317108 0.75 2.375 C0.5025 1.59125 0.255 0.8075 0 0 Z " fill="#D66D52" transform="translate(263,269)"/>
<path d="M0 0 C0.33 0 0.66 0 1 0 C1 2.64 1 5.28 1 8 C0.01 8.33 -0.98 8.66 -2 9 C-2.33 9.66 -2.66 10.32 -3 11 C-2.44894091 7.0507432 -1.61064629 3.65079826 0 0 Z " fill="#67858D" transform="translate(196,256)"/>
<path d="M0 0 C1.485 0.99 1.485 0.99 3 2 C2.01 5.3 1.02 8.6 0 12 C-0.33 12 -0.66 12 -1 12 C-0.67 8.04 -0.34 4.08 0 0 Z " fill="#6EBDD1" transform="translate(219,278)"/>
<path d="M0 0 C3.48331435 3.01887244 4.79157144 5.56909529 6 10 C2.46413986 6.82679218 0.41421969 4.83256305 0 0 Z " fill="#6996BE" transform="translate(261,154)"/>
<path d="M0 0 C0.66 0 1.32 0 2 0 C1.73958333 2.01822917 1.47916667 4.03645833 1.21875 6.0546875 C0.9627515 8.00498344 0.9627515 8.00498344 1 10 C-0.32 10.33 -1.64 10.66 -3 11 C-3 10.01 -3 9.02 -3 8 C-2.34 8 -1.68 8 -1 8 C-1.020625 7.05125 -1.04125 6.1025 -1.0625 5.125 C-1 2 -1 2 0 0 Z " fill="#47B8C0" transform="translate(174,317)"/>
<path d="M0 0 C-0.33 1.65 -0.66 3.3 -1 5 C-1.33 4.01 -1.66 3.02 -2 2 C-4.64 2 -7.28 2 -10 2 C-6.3558226 -0.4294516 -4.28758728 -0.16179575 0 0 Z " fill="#CB7757" transform="translate(197,254)"/>
<path d="M0 0 C3 1 3 1 4 3 C4.33 3.99 4.66 4.98 5 6 C4.34 7.32 3.68 8.64 3 10 C2.01 6.7 1.02 3.4 0 0 Z " fill="#656565" transform="translate(265,246)"/>
<path d="M0 0 C0.66 0.33 1.32 0.66 2 1 C2 1.66 2 2.32 2 3 C1.01 3 0.02 3 -1 3 C-0.67 4.32 -0.34 5.64 0 7 C-0.99 7.33 -1.98 7.66 -3 8 C-2.74438677 5.6568787 -2.40729228 3.32156597 -2 1 C-1.34 0.67 -0.68 0.34 0 0 Z " fill="#1388C2" transform="translate(222,201)"/>
<path d="M0 0 C0.66 0 1.32 0 2 0 C1.93999894 1.6260287 1.8512115 3.25101549 1.75 4.875 C1.70359375 5.77992188 1.6571875 6.68484375 1.609375 7.6171875 C1 10 1 10 -1.046875 11.3203125 C-1.69140625 11.54460937 -2.3359375 11.76890625 -3 12 C-2.690625 11.505 -2.38125 11.01 -2.0625 10.5 C-0.58355618 7.02013219 -0.37597149 3.75971491 0 0 Z " fill="#39ABBE" transform="translate(208,303)"/>
<path d="M0 0 C0.66 0 1.32 0 2 0 C1.67 1.98 1.34 3.96 1 6 C0.34 6 -0.32 6 -1 6 C-1.33 6.99 -1.66 7.98 -2 9 C-2 6.69 -2 4.38 -2 2 C-1.34 2 -0.68 2 0 2 C0 1.34 0 0.68 0 0 Z " fill="#408BA5" transform="translate(229,254)"/>
<path d="M0 0 C0.66 0.99 1.32 1.98 2 3 C0.625 6.6875 0.625 6.6875 -1 10 C-1.66 9.67 -2.32 9.34 -3 9 C-2.01 6.03 -1.02 3.06 0 0 Z " fill="#4CA7C7" transform="translate(206,231)"/>
<path d="M0 0 C0.66 0.33 1.32 0.66 2 1 C2 1.66 2 2.32 2 3 C-2.47058824 7 -2.47058824 7 -5 7 C-3.70700306 4.11562221 -2.34058637 2.12780579 0 0 Z " fill="#5991B4" transform="translate(241,151)"/>
<path d="M0 0 C1.06546953 3.1964086 1.07427838 5.65747276 1 9 C0.34 9 -0.32 9 -1 9 C-1.33 6.36 -1.66 3.72 -2 1 C-1.34 0.67 -0.68 0.34 0 0 Z " fill="#53B6B9" transform="translate(170,328)"/>
<path d="M0 0 C1.2065625 0.0309375 1.2065625 0.0309375 2.4375 0.0625 C1.7775 1.3825 1.1175 2.7025 0.4375 4.0625 C-0.2225 4.0625 -0.8825 4.0625 -1.5625 4.0625 C-1.8925 4.7225 -2.2225 5.3825 -2.5625 6.0625 C-2.94468767 4.40635343 -3.27645102 2.73792976 -3.5625 1.0625 C-2.5625 0.0625 -2.5625 0.0625 0 0 Z " fill="#4A494C" transform="translate(291.5625,304.9375)"/>
<path d="M0 0 C0.99 0 1.98 0 3 0 C3.33 0.99 3.66 1.98 4 3 C3.67 3.66 3.34 4.32 3 5 C1.35 5 -0.3 5 -2 5 C-1.67 4.01 -1.34 3.02 -1 2 C-1 2.66 -1 3.32 -1 4 C-0.34 4 0.32 4 1 4 C0.67 2.68 0.34 1.36 0 0 Z " fill="#DD2829" transform="translate(274,296)"/>
<path d="M0 0 C1.42944945 2.35438733 2.08661261 3.48032433 1.625 6.25 C1.41875 6.8275 1.2125 7.405 1 8 C0.34 8 -0.32 8 -1 8 C-1.625 5.6875 -1.625 5.6875 -2 3 C-1.34 2.01 -0.68 1.02 0 0 Z " fill="#E1462A" transform="translate(229,266)"/>
<path d="M0 0 C0.99 0 1.98 0 3 0 C2.67 1.65 2.34 3.3 2 5 C2.66 5.33 3.32 5.66 4 6 C2.68 6.33 1.36 6.66 0 7 C0 4.69 0 2.38 0 0 Z " fill="#71ABBD" transform="translate(231,248)"/>
<path d="M0 0 C1.32 0.66 2.64 1.32 4 2 C3.34 2 2.68 2 2 2 C1.67 3.65 1.34 5.3 1 7 C0.34 7 -0.32 7 -1 7 C-0.67 4.69 -0.34 2.38 0 0 Z " fill="#3B92BB" transform="translate(218,200)"/>
<path d="M0 0 C2 1 2 1 3 3 C2.67 3.66 2.34 4.32 2 5 C0.68 4.67 -0.64 4.34 -2 4 C-2 3.01 -2 2.02 -2 1 C-1.34 0.67 -0.68 0.34 0 0 Z " fill="#4FBFBE" transform="translate(173,339)"/>
<path d="M0 0 C1.32 0 2.64 0 4 0 C3.34 1.98 2.68 3.96 2 6 C1.34 6 0.68 6 0 6 C-1 3 -1 3 0 0 Z " fill="#4BBABD" transform="translate(194,337)"/>
<path d="M0 0 C0.66 0.99 1.32 1.98 2 3 C1.125 6.6875 1.125 6.6875 0 10 C-0.33 10 -0.66 10 -1 10 C-1.02689216 8.52093108 -1.04634621 7.04172517 -1.0625 5.5625 C-1.07410156 4.73878906 -1.08570313 3.91507812 -1.09765625 3.06640625 C-1 1 -1 1 0 0 Z " fill="#5EBBCD" transform="translate(214,292)"/>
<path d="M0 0 C0.98120464 3.05263664 0.98120464 4.94736336 0 8 C-0.66 8 -1.32 8 -2 8 C-2 7.34 -2 6.68 -2 6 C-3.32 5.67 -4.64 5.34 -6 5 C-5.195625 4.731875 -4.39125 4.46375 -3.5625 4.1875 C-2.716875 3.795625 -1.87125 3.40375 -1 3 C-0.67 2.01 -0.34 1.02 0 0 Z " fill="#8EAAAD" transform="translate(199,248)"/>
<path d="M0 0 C0.66 0 1.32 0 2 0 C1.01 3.3 0.02 6.6 -1 10 C-1.66 8.68 -2.32 7.36 -3 6 C-2.67 5.34 -2.34 4.68 -2 4 C-1.34 4 -0.68 4 0 4 C0 2.68 0 1.36 0 0 Z " fill="#77B2CF" transform="translate(246,212)"/>
<path d="M0 0 C0.66 0.33 1.32 0.66 2 1 C2 2.65 2 4.3 2 6 C0.35 6 -1.3 6 -3 6 C-3 5.34 -3 4.68 -3 4 C-2.01 4 -1.02 4 0 4 C0 2.68 0 1.36 0 0 Z " fill="#1C78B4" transform="translate(229,178)"/>
<path d="M0 0 C1.32 0 2.64 0 4 0 C3.67 1.32 3.34 2.64 3 4 C1.68 4 0.36 4 -1 4 C-0.67 2.68 -0.34 1.36 0 0 Z " fill="#1570BB" transform="translate(260,169)"/>
</svg>
